<svg width="16" height="12" viewBox="0 0 16 12" fill="none" xmlns="http://www.w3.org/2000/svg">
<line x1="16" y1="5.79578" x2="-4.37114e-08" y2="5.79577" stroke="white"/>
<path d="M1.02419 5.84764L0.640083 5.52755L-0.000101268 6.29577L0.384009 6.61586L1.02419 5.84764ZM5.61579 10.9757C5.82793 11.1525 6.14321 11.1238 6.31999 10.9117C6.49677 10.6995 6.46811 10.3842 6.25597 10.2075L5.61579 10.9757ZM0.384009 6.61586L5.61579 10.9757L6.25597 10.2075L1.02419 5.84764L0.384009 6.61586Z" fill="white"/>
<path d="M1.02419 5.74391L0.640083 6.06401L-0.000101268 5.29578L0.384009 4.97569L1.02419 5.74391ZM5.61579 0.615876C5.82793 0.439094 6.14321 0.467756 6.31999 0.679895C6.49677 0.892033 6.46811 1.20732 6.25597 1.3841L5.61579 0.615876ZM0.384009 4.97569L5.61579 0.615876L6.25597 1.3841L1.02419 5.74391L0.384009 4.97569Z" fill="white"/>
</svg>
