<svg width="16" height="11" viewBox="0 0 16 11" fill="none" xmlns="http://www.w3.org/2000/svg">
<line y1="5.5" x2="16" y2="5.5" stroke="white"/>
<path d="M14.9758 5.44814L15.3599 5.76823L16.0001 5.00001L15.616 4.67992L14.9758 5.44814ZM10.3842 0.3201C10.1721 0.143318 9.85679 0.17198 9.68001 0.384118C9.50323 0.596256 9.53189 0.911539 9.74403 1.08832L10.3842 0.3201ZM15.616 4.67992L10.3842 0.3201L9.74403 1.08832L14.9758 5.44814L15.616 4.67992Z" fill="white"/>
<path d="M14.9758 5.55186L15.3599 5.23177L16.0001 5.99999L15.616 6.32008L14.9758 5.55186ZM10.3842 10.6799C10.1721 10.8567 9.85679 10.828 9.68001 10.6159C9.50323 10.4037 9.53189 10.0885 9.74403 9.91168L10.3842 10.6799ZM15.616 6.32008L10.3842 10.6799L9.74403 9.91168L14.9758 5.55186L15.616 6.32008Z" fill="white"/>
</svg>
